<svg xmlns="http://www.w3.org/2000/svg" height="650" viewBox="0 0 2250 650" width="2250"><g fill="none" fill-rule="evenodd" transform="translate(90 130)"><path d="m471 197.565637v189h84.05c52.4 0 87.703-.398 93.75-1.056 54.4-5.92 90.918-30.94 105.737-72.444 4.599-12.881 5.936-21.8 5.844-39-.063-11.7-.554-16.936-2.23-23.8-2.49-10.2-7.389-21.28-12.246-27.7-1.892-2.5-4.115-5.611-5.003-7-3.373-5.279-16.002-16.754-24.702-22.446-5-3.271-8.852-6.337-8.55-6.804.304-.47 2.25-1.923 4.35-3.249 15.21-9.6 29.708-30.601 34.381-49.801 4.562-18.741 2.278-44.1000003-5.691-63.2000003-6.134-14.7-19.402-31.019-32.39-39.837-8.861-6.016-24.7-13.218-35.5-16.141-19.573-5.29799997-24.3-5.52199997-116.6-5.52199997h-85.2zm176.5-144.4950003c19.2 2.891 31.349 8.271 41.306 18.295 10.713 10.785 15.148 24.2 13.785 41.7000003-.803 10.3-2.583 16.801-6.735 24.6-9.983 18.749-29.156 28.802-58.456 30.65-6.537.412-36.35.637-66.15.5l-54.25-.25v-117.0000003h60.25c48.4 0 62.217.296 70.25 1.505zm10 161.8190003c29.7 6.03 48.078 19.814 54.767 41.076 1.855 5.898 2.217 9.3 2.14 20.1-.146 20.4-4.648 33.328-15.307 43.955-12.578 12.541-29.9 19.818-53.5 22.475-5.663.638-33.55 1.07-69.05 1.07h-59.55v-131.1l66.25.4c56.2.339 67.464.646 74.25 2.024zm897.1-209.30800027c25.4 5.96299997 49.16 18.65499997 63.994 34.18399997 20.4039 21.36123 30.51087 46.3939146 32.92713 81.6291363l.07087 1.070864.708 11.1h-45.9l-1.198-13.3c-1.379-15.3-3.145-22.7020003-7.516-31.5000003-12.042-24.234-35.586-39.138-69.686-44.111-48.4-7.059-91.328 8.159-104.399 37.011-3.428 7.566-4.959 17.6-4.332 28.4000003.841 14.5 5.003 22.817 16.231 32.436 12.811 10.975 30.8 17.483 73 26.411 48.2 10.197 52.285 11.145 67.6 15.687 48.5 14.384 77.395 42.57 83.004 80.966 1.753 12 .678 36.392-2.046 46.4-4.599 16.9-12.506 30.075-26.467 44.1-16.678 16.754-35.691 27.028-61.791 33.391-21.609 5.268-40.2 6.807-62.3 5.156-50.4-3.764-82.259-15.919-107.6-41.052-.35161-.348742-.69493-.690048-1.03033-1.024378l-.98277-.982521c-9.27738-9.304284-12.19838-13.128392-17.7299-22.688101-5.346-9.241-9.715-20.2-12.678-31.8-2.74245-10.737314-4.86968-34.407745-4.00727-44.261702l.04127-.438298.687-6.8h46l-.675 11.3c-2.009 33.6 9.406 58.88 33.975 75.247 17.437 11.615 36.7 17.184 67.5 19.516 21.2 1.606 43.45-1.323 60.6-7.975 20.6-7.99 36.971-24.539 41.538-41.988 2.005-7.659 2.378-24.4.719-32.3-2.452-11.686-10.457-22.264-23.057-30.47-14.667-9.552-34.8-15.899-78.8-24.842-5.04043-1.024479-10.571-2.214136-16.21288-3.477547l-1.47407-.331199c-.73805-.166375-1.47744-.333871-2.21731-.502283l-1.48016-.337986-1.47998-.34007-1.4783-.341793-1.42762-.332068c-14.25677-3.325975-27.8651-6.794315-34.72968-8.934054-12-3.741-27.383-10.828-37.1-17.091-8.8-5.672-21.517-18.124-27.064-26.5-14.444-21.81-17.524-57.5000003-7.361-85.3000003 1.609-4.4 3.848-9.305 4.975-10.9 1.131-1.6 2.05-3.348 2.05-3.9 0-1.1225609 3.82957-6.3925788 8.17875-11.63385l.52418-.6285472c2.63128-3.1393737 5.40195-6.2082613 7.59707-8.3046028 19.595-18.714 49.7-30.98699997 84.7-34.53199997 18.349-1.858 47.9.291 67.6 4.915zm537.4 2.984v42.99999997l-125-.5v335.5000003h-46v-335.0000003h-125v-42.99999997zm-1900.2 0 8.002 20.19999997c23.887 60.3 31.645 79.9970003 34.191 86.8000003.287813.76875.591094 1.568683.899508 2.37369l.309742.805732c1.24275 3.221953 2.5125 6.385828 3.14775 7.820578.29785.67305 1.34883 3.263715 2.918457 7.183278l.274115.684833c.093037.232544.187723.469317.284015.71021l.29365.734927c2.934083 7.346148 7.227743 18.181752 11.757763 29.686752 5.109 12.975 10.867828 27.586172 16.637555 42.214306l.961612 2.437902c9.294445 23.562536 18.525041 46.935604 25.019833 63.347792 15.235 38.5 29.299 74.135 34.731 88 .344483.87931.69162 1.765523 1.038297 2.650684l.519283 1.325959c2.821097 7.203987 5.507765 14.072581 6.36442 16.273357l1.85 4.75-49.1-.5-3.858-9.5c-13.282-32.7-40.134-102.084-39.746-102.7.17174-.2728-13.0913-.428358-33.348782-.44165l-5.034094-.000427c-11.360374.005226-24.555124.051327-38.613124.142077l-77.5.5-3.85 9.5c-1.9098 4.7124-9.69939 24.27048-18.088623 45.412272l-.5601126 1.411653c-.3739234.942473-.7487995 1.887491-1.1241648 2.833892l-.5633567 1.420491c-.1878693.473746-.3758029.947692-.5637429 1.421692-9.397 23.7-17.791 44.683-18.7 46.75l-1.65 3.75-25.2701504-.000355c-12.9775111-.010017-23.4298496-.230967-23.4298496-.499645 0-.275 6.927-17.7 15.423-38.8 6.86208-17.04 14.2760256-35.467872 21.6781356-53.879305l1.8499546-4.601703c22.8050202-56.730068 45.0509298-112.191292 50.2139098-125.218992 3.804-9.6 7.364-18.403 7.885-19.5.524-1.103 7.59-18.6 15.75-39 3.218028-8.0450707 7.033427-17.5749354 10.878675-27.1733383l.824232-2.0573336.823905-2.0563349c5.351628-13.3562214 10.603878-26.4528949 14.223188-35.4629935l11.95-29.74999997zm-19.8 66.99999997c-.713 0-12.495 29.4000003-33.465 83.5000003-13.062 33.7-25.652 65.358-26.924 67.7-.759 1.4-1.134 2.877-.812 3.2.898.899 118.951.8 119.507-.1.414-.67-10.71-31.6-13.235-36.8-.531-1.095-2.555-6.3-4.471-11.5-1.413032-3.835373-5.583198-14.917853-10.344654-27.502577l-.415477-1.097971c-.416863-1.101476-.837721-2.213053-1.261152-3.330953l-.424235-1.119867c-.141662-.373898-.283558-.748359-.425634-1.123243l-.426715-1.125779-1.711352-4.511691c-.213841-.56342-.427494-1.126217-.640781-1.687919-1.3364-3.52-2.73312-7.20448-4.1392-10.918352l-.496569-1.311779c-.496792-1.312559-.994003-2.6268-1.489393-3.936784l-.494699-1.308344c-4.774624-12.629355-9.309268-24.6758707-11.580139-30.7747413-3.313-8.9-6.367-16.25-6.75-16.25z" fill="#6f6f6f"></path><path d="m1046.616 14.3656367c-.229.385-1.856 4.3-3.616 8.7-1.767 4.419-5.102 12.7-7.45 18.5s-5.928 14.752-8 20c-2.053 5.2-4.338 10.858-5.05 12.5-.716 1.652-15.901 39.4000003-33.792 84.0000003-58.566 146-81.806 203.834-85.271 212.2-1.905 4.6-3.437 8.969-3.437 9.8 0 1.289 2.55 1.465 18.15 1.25l18.15-.25 2.8-7c1.54-3.85 12.453-31.3 24.25-61 11.798-29.7 22.8-57.825 24.45-62.5s8.695-22.9 15.656-40.5c22.267-56.3 41.107-104.126 52.196-132.5000003 3.556-9.1 6.807-16.859 7.248-17.3.439-.439 4.078 7.9 8.071 18.5 9.875 26.2120003 17.562 46.5000003 46.528 122.8000003 5.125 13.5 11.389 30.112 13.951 37 2.567 6.9 5.277 14.068 6.05 16 .769 1.922 5.857 15 11.282 29 25.77 66.5 37.751 96.607 38.718 97.292.552.39 8.4.708 17.5.708s16.993-.336 17.6-.75c.754-.514-.22-4.05-3.1-11.25-2.31-5.775-7.021-17.7-10.469-26.5-6.565-16.755-17.501-44.5-31.651-80.3-4.624-11.697-12.235-30.95-16.98-42.95-4.737-11.979-14.373-36.35-21.45-54.25s-18.533-46.875-25.5-64.5c-6.957-17.6000003-16.475-41.6750003-21.15-53.5000003-4.665-11.8-9.425-23.981-10.55-27-1.118-3-2.55-5.833-3.15-6.233-1.5-1-31.389-.969-31.984.033" fill="#608bc0"></path></g></svg>